<?xml version="1.0" encoding="iso-8859-1"?>
<!-- Generator: Adobe Illustrator 19.0.0, SVG Export Plug-In . SVG Version: 6.00 Build 0)  -->
<svg version="1.1" id="Capa_1" xmlns="http://www.w3.org/2000/svg" xmlns:xlink="http://www.w3.org/1999/xlink" x="0px" y="0px"
	 viewBox="0 0 512 512" style="enable-background:new 0 0 512 512;" xml:space="preserve">
<polygon style="fill:#FFEA92;" points="103.387,78.171 42.868,138.691 42.868,501.807 355.552,501.807 355.552,78.171 "/>
<rect x="88.258" y="173.994" style="fill:#00E676;" width="221.905" height="40.346"/>
<g>
	<rect x="88.258" y="214.34" style="fill:#FDD844;" width="221.905" height="20.173"/>
	<polygon style="fill:#FDD844;" points="113.474,7.565 113.474,42.868 78.171,42.868 78.171,103.387 103.387,78.171 
		103.387,138.691 42.868,138.691 42.868,158.864 123.561,158.864 123.561,78.171 355.552,78.171 355.552,252.722 325.748,279.633 
		286.451,271.204 274.141,309.444 235.901,321.754 244.33,361.052 217.418,390.855 244.33,420.658 235.901,459.956 274.14,472.266 
		277.156,481.634 42.868,481.634 42.868,501.807 283.65,501.807 355.552,501.807 355.552,481.634 355.552,279.903 379.496,301.522 
		411.042,294.756 420.931,325.476 426.158,327.158 426.158,7.565 	"/>
</g>
<polygon style="fill:#F4511E;" points="466.504,390.855 444.884,414.799 451.651,446.345 420.931,456.234 411.042,486.954 
	379.496,480.188 355.552,501.807 331.609,480.188 300.062,486.954 290.172,456.234 259.453,446.345 266.219,414.799 244.6,390.855 
	266.219,366.912 259.453,335.365 290.173,325.476 300.062,294.756 331.609,301.522 355.552,279.903 379.496,301.522 
	411.042,294.756 420.931,325.476 451.651,335.365 444.884,366.912 "/>
<g>
	<path style="fill:#80CBC4;" d="M355.552,395.898L355.552,395.898c-8.356,0-15.13-6.774-15.13-15.13v-40.346
		c0-8.356,6.774-15.13,15.13-15.13l0,0c8.356,0,15.13,6.774,15.13,15.13v40.346C370.682,389.124,363.908,395.898,355.552,395.898z"
		/>
	<circle style="fill:#80CBC4;" cx="355.552" cy="441.288" r="15.13"/>
</g>
<polygon style="fill:#D84315;" points="420.931,436.061 411.042,466.781 379.496,460.015 355.552,481.634 331.609,460.015 
	300.062,466.781 290.172,436.061 263.501,427.475 259.453,446.345 290.172,456.234 300.062,486.954 331.609,480.188 
	355.552,501.807 379.496,480.188 411.042,486.954 420.931,456.234 451.651,446.345 447.603,427.475 "/>
<path style="fill:#26A69A;" d="M355.552,375.725c-8.356,0-15.13-6.774-15.13-15.13v20.173c0,8.356,6.774,15.13,15.13,15.13
	c8.356,0,15.13-6.774,15.13-15.13v-20.173C370.682,368.951,363.908,375.725,355.552,375.725z"/>
<path d="M50.433,146.255h60.52V85.736h237.035v160.195h15.13V70.606H100.254L85.736,85.125V50.433H383.29v222.863h15.13V35.303
	H121.039V15.13h297.554v250.591h15.13V0H105.909v35.303H70.606v64.952l-35.303,35.303v373.815h243.046v-15.13H50.433V146.255z
	 M61.131,131.126l34.692-34.692v34.692H61.131z"/>
<path d="M355.552,317.727c-12.513,0-22.695,10.18-22.695,22.695v40.346c0,12.514,10.181,22.695,22.695,22.695
	c12.513,0,22.695-10.18,22.695-22.695v-40.346C378.247,327.908,368.065,317.727,355.552,317.727z M363.117,380.768
	c0,4.172-3.393,7.565-7.565,7.565c-4.172,0-7.565-3.393-7.565-7.565v-40.346c0-4.172,3.393-7.565,7.565-7.565
	c4.172,0,7.565,3.393,7.565,7.565V380.768z"/>
<path d="M355.552,418.593c-12.513,0-22.695,10.18-22.695,22.695s10.181,22.695,22.695,22.695c12.513,0,22.695-10.18,22.695-22.695
	S368.065,418.593,355.552,418.593z M355.552,448.853c-4.172,0-7.565-3.393-7.565-7.565c0-4.172,3.393-7.565,7.565-7.565
	c4.172,0,7.565,3.393,7.565,7.565C363.117,445.46,359.723,448.853,355.552,448.853z"/>
<path d="M476.697,390.855l-23.605-26.141l7.39-34.454l-33.54-10.797l-10.796-33.539l-34.454,7.39l-26.141-23.605l-26.141,23.605
	l-34.453-7.39l-10.797,33.539l-33.54,10.797l7.39,34.454l-23.606,26.141l23.605,26.141l-7.39,34.454l33.54,10.797l10.796,33.539
	l34.454-7.39L355.551,512l26.141-23.605l34.453,7.39l10.797-33.539l33.54-10.797l-7.39-34.454L476.697,390.855z M414.92,450.223
	l-8.982,27.9l-28.64-6.143l-21.747,19.636l-21.747-19.636l-28.641,6.143l-8.981-27.901l-27.9-8.981l6.144-28.64l-19.635-21.746
	l19.636-21.746l-6.144-28.641l27.899-8.981l8.982-27.9l28.64,6.143l21.747-19.636l21.747,19.636l28.641-6.143l8.981,27.901
	l27.899,8.981l-6.144,28.64l19.636,21.746l-19.636,21.746l6.144,28.641L414.92,450.223z"/>
<path d="M317.727,166.429H80.693v55.476h237.035V166.429z M302.597,206.775H95.823v-25.216h206.775V206.775z"/>
<rect x="140.708" y="257.208" width="15.13" height="15.13"/>
<rect x="80.188" y="257.208" width="15.13" height="15.13"/>
<rect x="110.448" y="257.208" width="15.13" height="15.13"/>
<rect x="120.535" y="297.554" width="149.695" height="15.13"/>
<rect x="80.188" y="337.901" width="155.646" height="15.13"/>
<rect x="80.188" y="378.247" width="134.989" height="15.13"/>
<rect x="80.188" y="418.593" width="43.372" height="15.13"/>
<rect x="138.691" y="418.593" width="15.13" height="15.13"/>
<rect x="168.95" y="418.593" width="15.13" height="15.13"/>
<g>
	<polygon style="fill:#FFFFFF;" points="332.857,148.777 317.727,148.777 317.727,115.996 284.946,115.996 284.946,100.866 
		332.857,100.866 	"/>
	<polygon style="fill:#FFFFFF;" points="95.318,479.113 65.563,479.113 65.563,449.357 80.693,449.357 80.693,463.983 
		95.318,463.983 	"/>
	<rect x="284.946" y="383.29" style="fill:#FFFFFF;" width="15.13" height="15.13"/>
	<path style="fill:#FFFFFF;" d="M246.617,115.996h-50.433v-15.13h50.433V115.996z M181.054,115.996h-15.13v-15.13h15.13V115.996z"/>
	<path style="fill:#FFFFFF;" d="M236.53,479.113h-50.433v-15.13h50.433V479.113z M170.968,479.113h-15.13v-15.13h15.13V479.113z"/>
	<rect x="411.028" y="383.29" style="fill:#FFFFFF;" width="15.13" height="15.13"/>
</g>
<g>
</g>
<g>
</g>
<g>
</g>
<g>
</g>
<g>
</g>
<g>
</g>
<g>
</g>
<g>
</g>
<g>
</g>
<g>
</g>
<g>
</g>
<g>
</g>
<g>
</g>
<g>
</g>
<g>
</g>
</svg>
